<svg width="28" height="28" viewBox="0 0 28 28" fill="none" xmlns="http://www.w3.org/2000/svg">
<path d="M20.9067 13.5567C20.8511 13.4135 20.7679 13.2826 20.6617 13.1717L14.8283 7.33833C14.7196 7.22955 14.5904 7.14327 14.4483 7.08439C14.3062 7.02552 14.1538 6.99522 14 6.99522C13.6893 6.99522 13.3914 7.11864 13.1717 7.33833C13.0629 7.44711 12.9766 7.57625 12.9177 7.71837C12.8589 7.8605 12.8286 8.01283 12.8286 8.16666C12.8286 8.47735 12.952 8.77531 13.1717 8.995L17.0217 12.8333H8.16667C7.85725 12.8333 7.5605 12.9562 7.34171 13.175C7.12292 13.3938 7 13.6906 7 14C7 14.3094 7.12292 14.6062 7.34171 14.825C7.5605 15.0437 7.85725 15.1667 8.16667 15.1667H17.0217L13.1717 19.005C13.0623 19.1135 12.9755 19.2425 12.9163 19.3847C12.8571 19.5268 12.8266 19.6793 12.8266 19.8333C12.8266 19.9873 12.8571 20.1398 12.9163 20.282C12.9755 20.4242 13.0623 20.5532 13.1717 20.6617C13.2801 20.771 13.4092 20.8578 13.5513 20.917C13.6935 20.9763 13.846 21.0068 14 21.0068C14.154 21.0068 14.3065 20.9763 14.4487 20.917C14.5908 20.8578 14.7199 20.771 14.8283 20.6617L20.6617 14.8283C20.7679 14.7174 20.8511 14.5865 20.9067 14.4433C21.0234 14.1593 21.0234 13.8407 20.9067 13.5567Z" fill="currentColor"/>
</svg>