<svg width="20" height="20" viewBox="0 0 20 20" fill="none" xmlns="http://www.w3.org/2000/svg">
<path d="M15.5917 6.00834C15.5142 5.93023 15.422 5.86824 15.3205 5.82593C15.2189 5.78362 15.11 5.76184 15 5.76184C14.89 5.76184 14.7811 5.78362 14.6795 5.82593C14.578 5.86824 14.4858 5.93023 14.4083 6.00834L8.20001 12.225L5.59168 9.60834C5.51124 9.53064 5.41629 9.46955 5.31224 9.42854C5.2082 9.38754 5.09709 9.36743 4.98528 9.36937C4.87346 9.3713 4.76312 9.39524 4.66055 9.43982C4.55799 9.4844 4.46521 9.54874 4.38751 9.62917C4.30981 9.70961 4.24872 9.80456 4.20771 9.9086C4.16671 10.0127 4.1466 10.1238 4.14853 10.2356C4.15047 10.3474 4.17441 10.4577 4.21899 10.5603C4.26356 10.6629 4.32791 10.7556 4.40834 10.8333L7.60834 14.0333C7.68581 14.1114 7.77798 14.1734 7.87953 14.2157C7.98108 14.2581 8.09 14.2798 8.20001 14.2798C8.31002 14.2798 8.41894 14.2581 8.52049 14.2157C8.62204 14.1734 8.71421 14.1114 8.79168 14.0333L15.5917 7.23334C15.6763 7.1553 15.7438 7.06059 15.7899 6.95518C15.8361 6.84976 15.86 6.73592 15.86 6.62084C15.86 6.50575 15.8361 6.39192 15.7899 6.2865C15.7438 6.18108 15.6763 6.08637 15.5917 6.00834V6.00834Z" fill="currentColor"/>
</svg>
